<svg xmlns="http://www.w3.org/2000/svg" viewBox="0 0 64 64">
  <rect width="64" height="64" rx="14" fill="#0f2f22" />
  <circle cx="32" cy="32" r="22" fill="#f6edd7" />
  <path fill="#101513" d="M32 18 23 24l3 10h12l3-10-9-6Z" />
  <path fill="#101513" d="m18 28 5-4 3 10-6 6-5-8 3-4Z" />
  <path fill="#101513" d="m46 28-5-4-3 10 6 6 5-8-3-4Z" />
  <path fill="#101513" d="m20 40 6-6 6 4v10l-8-3-4-5Z" />
  <path fill="#101513" d="m44 40-6-6-6 4v10l8-3 4-5Z" />
  <path d="M32 10a22 22 0 1 0 0 44 22 22 0 0 0 0-44Zm0 4a18 18 0 1 1 0 36 18 18 0 0 1 0-36Z" fill="#d5b36a" />
  <circle cx="32" cy="32" r="22" fill="none" stroke="#d5b36a" stroke-width="2" />
</svg>
